<svg xmlns="http://www.w3.org/2000/svg" xmlns:xlink="http://www.w3.org/1999/xlink" width="500" zoomAndPan="magnify" viewBox="0 0 375 374.999991" height="500" preserveAspectRatio="xMidYMid meet" version="1.0"><defs><g/><clipPath id="5af76c0d78"><path d="M 157.214844 132 L 178 132 L 178 162 L 157.214844 162 Z M 157.214844 132 " clip-rule="nonzero"/></clipPath><clipPath id="0274ca1e49"><path d="M 157.214844 131 L 179 131 L 179 163 L 157.214844 163 Z M 157.214844 131 " clip-rule="nonzero"/></clipPath><clipPath id="6b3389587c"><path d="M 197 132 L 217.964844 132 L 217.964844 162 L 197 162 Z M 197 132 " clip-rule="nonzero"/></clipPath><clipPath id="617d9e5891"><path d="M 196 131 L 217.964844 131 L 217.964844 163 L 196 163 Z M 196 131 " clip-rule="nonzero"/></clipPath><clipPath id="7a0cac7cfa"><path d="M 176 123.375 L 198 123.375 L 198 170.625 L 176 170.625 Z M 176 123.375 " clip-rule="nonzero"/></clipPath></defs><rect x="-37.5" width="450" fill="#ffffff" y="-37.499999" height="449.999989" fill-opacity="1"/><rect x="-37.5" width="450" fill="#1e1e1e" y="-37.499999" height="449.999989" fill-opacity="1"/><g clip-path="url(#5af76c0d78)"><path fill="#38b6ff" d="M 176.320312 161.707031 C 175.988281 161.707031 175.65625 161.59375 175.394531 161.386719 L 158.457031 148.058594 C 158.09375 147.773438 157.882812 147.34375 157.882812 146.882812 C 157.882812 146.417969 158.09375 145.988281 158.457031 145.703125 L 175.394531 132.378906 C 175.65625 132.167969 175.988281 132.058594 176.320312 132.058594 C 176.785156 132.058594 177.214844 132.261719 177.5 132.628906 C 177.746094 132.941406 177.859375 133.335938 177.8125 133.734375 C 177.765625 134.132812 177.5625 134.488281 177.25 134.734375 L 161.8125 146.882812 L 177.25 159.027344 C 177.5625 159.277344 177.765625 159.632812 177.8125 160.027344 C 177.859375 160.425781 177.746094 160.816406 177.5 161.136719 C 177.214844 161.496094 176.785156 161.707031 176.320312 161.707031 " fill-opacity="1" fill-rule="nonzero"/></g><g clip-path="url(#0274ca1e49)"><path fill="#000000" d="M 176.320312 131.417969 C 175.84375 131.417969 175.375 131.578125 175 131.875 L 158.0625 145.199219 C 157.542969 145.613281 157.246094 146.222656 157.246094 146.882812 C 157.246094 147.542969 157.542969 148.15625 158.0625 148.5625 L 175 161.886719 C 175.375 162.183594 175.84375 162.347656 176.320312 162.347656 C 176.984375 162.347656 177.597656 162.046875 178.003906 161.527344 C 178.359375 161.082031 178.511719 160.523438 178.445312 159.953125 C 178.378906 159.386719 178.09375 158.878906 177.644531 158.527344 L 162.84375 146.882812 L 177.644531 135.238281 C 178.09375 134.882812 178.378906 134.375 178.445312 133.808594 C 178.511719 133.242188 178.359375 132.683594 178.003906 132.234375 C 177.597656 131.714844 176.980469 131.417969 176.320312 131.417969 Z M 176.320312 132.695312 C 176.578125 132.695312 176.828125 132.808594 177 133.023438 C 177.292969 133.398438 177.226562 133.941406 176.855469 134.234375 L 160.777344 146.882812 L 176.855469 159.53125 C 177.226562 159.824219 177.292969 160.367188 177 160.738281 C 176.828125 160.957031 176.578125 161.070312 176.320312 161.070312 C 176.132812 161.070312 175.949219 161.007812 175.789062 160.882812 L 158.851562 147.558594 C 158.644531 147.394531 158.523438 147.144531 158.523438 146.882812 C 158.523438 146.617188 158.644531 146.367188 158.851562 146.203125 L 175.789062 132.878906 C 175.945312 132.753906 176.132812 132.695312 176.320312 132.695312 " fill-opacity="1" fill-rule="nonzero"/></g><g clip-path="url(#6b3389587c)"><path fill="#38b6ff" d="M 198.667969 161.707031 C 198.207031 161.707031 197.777344 161.496094 197.488281 161.136719 C 196.976562 160.484375 197.089844 159.539062 197.742188 159.027344 L 213.179688 146.882812 L 197.742188 134.734375 C 197.089844 134.222656 196.976562 133.277344 197.488281 132.628906 C 197.777344 132.261719 198.207031 132.058594 198.667969 132.058594 C 199.003906 132.058594 199.332031 132.167969 199.597656 132.378906 L 216.535156 145.703125 C 216.898438 145.988281 217.105469 146.417969 217.105469 146.882812 C 217.105469 147.34375 216.898438 147.773438 216.53125 148.058594 L 199.597656 161.386719 C 199.332031 161.59375 199.003906 161.707031 198.667969 161.707031 " fill-opacity="1" fill-rule="nonzero"/></g><g clip-path="url(#617d9e5891)"><path fill="#000000" d="M 198.667969 131.417969 C 198.007812 131.417969 197.394531 131.714844 196.988281 132.234375 C 196.257812 133.160156 196.417969 134.507812 197.34375 135.238281 L 212.144531 146.882812 L 197.34375 158.527344 C 196.417969 159.253906 196.257812 160.601562 196.988281 161.527344 C 197.394531 162.046875 198.007812 162.347656 198.667969 162.347656 C 199.148438 162.347656 199.613281 162.183594 199.988281 161.886719 L 216.929688 148.5625 C 217.445312 148.15625 217.742188 147.542969 217.742188 146.882812 C 217.742188 146.222656 217.445312 145.613281 216.929688 145.199219 L 199.992188 131.875 C 199.617188 131.578125 199.148438 131.417969 198.667969 131.417969 Z M 198.667969 132.695312 C 198.855469 132.695312 199.042969 132.753906 199.199219 132.878906 L 216.140625 146.203125 C 216.347656 146.367188 216.464844 146.617188 216.464844 146.882812 C 216.464844 147.144531 216.347656 147.394531 216.140625 147.558594 L 199.199219 160.882812 C 199.042969 161.007812 198.855469 161.070312 198.667969 161.070312 C 198.414062 161.070312 198.160156 160.957031 197.992188 160.738281 C 197.699219 160.367188 197.761719 159.824219 198.136719 159.53125 L 214.210938 146.882812 L 198.136719 134.234375 C 197.761719 133.941406 197.699219 133.398438 197.992188 133.023438 C 198.160156 132.808594 198.414062 132.695312 198.667969 132.695312 " fill-opacity="1" fill-rule="nonzero"/></g><path fill="#38b6ff" d="M 179.078125 169.75 C 178.890625 169.75 178.710938 169.710938 178.535156 169.644531 C 178.164062 169.5 177.867188 169.21875 177.707031 168.855469 C 177.542969 168.484375 177.535156 168.078125 177.679688 167.707031 L 194.21875 124.972656 C 194.441406 124.402344 195.003906 124.015625 195.617188 124.015625 C 195.804688 124.015625 195.988281 124.050781 196.164062 124.117188 C 196.929688 124.417969 197.316406 125.289062 197.019531 126.058594 L 180.476562 168.789062 C 180.257812 169.363281 179.691406 169.75 179.078125 169.75 " fill-opacity="1" fill-rule="nonzero"/><g clip-path="url(#7a0cac7cfa)"><path fill="#000000" d="M 195.617188 123.375 C 194.742188 123.375 193.9375 123.929688 193.625 124.742188 L 177.082031 167.472656 C 176.878906 168.007812 176.890625 168.589844 177.121094 169.113281 C 177.351562 169.632812 177.773438 170.035156 178.304688 170.242188 C 178.554688 170.339844 178.8125 170.386719 179.078125 170.386719 C 179.953125 170.386719 180.757812 169.835938 181.074219 169.019531 L 197.613281 126.289062 C 198.039062 125.1875 197.492188 123.945312 196.390625 123.523438 C 196.144531 123.425781 195.882812 123.375 195.617188 123.375 Z M 195.617188 124.652344 C 195.722656 124.652344 195.828125 124.675781 195.929688 124.714844 C 196.375 124.882812 196.59375 125.382812 196.421875 125.828125 L 179.878906 168.558594 C 179.75 168.898438 179.421875 169.109375 179.078125 169.109375 C 178.972656 169.109375 178.867188 169.089844 178.765625 169.050781 C 178.320312 168.878906 178.101562 168.378906 178.277344 167.9375 L 194.816406 125.207031 C 194.949219 124.863281 195.273438 124.652344 195.617188 124.652344 " fill-opacity="1" fill-rule="nonzero"/></g><g fill="#ffffff" fill-opacity="1"><g transform="translate(42.406053, 216.116295)"><g><path d="M 8.734375 0 L 2.28125 0 L 2.28125 -33.59375 L 17.484375 -33.59375 C 19.691406 -33.59375 21.546875 -33.300781 23.046875 -32.71875 C 24.554688 -32.144531 25.78125 -31.363281 26.71875 -30.375 C 27.65625 -29.394531 28.332031 -28.273438 28.75 -27.015625 C 29.164062 -25.765625 29.375 -24.460938 29.375 -23.109375 L 29.375 -23.078125 C 29.375 -21.109375 28.960938 -19.289062 28.140625 -17.625 C 27.328125 -15.957031 26.050781 -14.625 24.3125 -13.625 C 22.570312 -12.632812 20.296875 -12.140625 17.484375 -12.140625 L 8.734375 -12.140625 Z M 8.734375 -27.546875 L 8.734375 -17.859375 L 16.8125 -17.859375 C 18.695312 -17.859375 20.15625 -18.234375 21.1875 -18.984375 C 22.21875 -19.742188 22.734375 -20.953125 22.734375 -22.609375 L 22.734375 -22.65625 C 22.734375 -24.34375 22.222656 -25.578125 21.203125 -26.359375 C 20.179688 -27.148438 18.71875 -27.546875 16.8125 -27.546875 Z M 8.734375 -27.546875 "/></g></g></g><g fill="#ffffff" fill-opacity="1"><g transform="translate(71.643983, 216.116295)"><g><path d="M 26.296875 -11.09375 L 26.296875 -10.515625 L 8.484375 -10.515625 C 8.816406 -9.003906 9.554688 -7.726562 10.703125 -6.6875 C 11.847656 -5.65625 13.320312 -5.140625 15.125 -5.140625 C 16.582031 -5.140625 17.925781 -5.363281 19.15625 -5.8125 C 20.382812 -6.269531 21.425781 -6.804688 22.28125 -7.421875 L 25.140625 -2.3125 C 23.953125 -1.570312 22.515625 -0.894531 20.828125 -0.28125 C 19.148438 0.320312 17.148438 0.625 14.828125 0.625 C 12.179688 0.625 9.867188 0.09375 7.890625 -0.96875 C 5.910156 -2.03125 4.375 -3.515625 3.28125 -5.421875 C 2.195312 -7.328125 1.65625 -9.535156 1.65625 -12.046875 L 1.65625 -12.09375 C 1.65625 -14.582031 2.164062 -16.769531 3.1875 -18.65625 C 4.207031 -20.550781 5.640625 -22.035156 7.484375 -23.109375 C 9.335938 -24.191406 11.523438 -24.734375 14.046875 -24.734375 C 16.585938 -24.734375 18.773438 -24.1875 20.609375 -23.09375 C 22.441406 -22 23.847656 -20.4375 24.828125 -18.40625 C 25.804688 -16.382812 26.296875 -13.945312 26.296875 -11.09375 Z M 14 -19.390625 C 12.5625 -19.390625 11.363281 -18.929688 10.40625 -18.015625 C 9.457031 -17.109375 8.832031 -15.960938 8.53125 -14.578125 L 19.59375 -14.578125 C 19.34375 -15.960938 18.75 -17.109375 17.8125 -18.015625 C 16.875 -18.929688 15.601562 -19.390625 14 -19.390625 Z M 14 -19.390625 "/></g></g></g><g fill="#ffffff" fill-opacity="1"><g transform="translate(98.065752, 216.116295)"><g><path d="M 14.875 0.65625 C 12.164062 0.65625 9.820312 0.101562 7.84375 -1 C 5.875 -2.101562 4.359375 -3.609375 3.296875 -5.515625 C 2.234375 -7.421875 1.703125 -9.585938 1.703125 -12.015625 L 1.703125 -12.09375 C 1.703125 -14.519531 2.210938 -16.6875 3.234375 -18.59375 C 4.253906 -20.5 5.726562 -22 7.65625 -23.09375 C 9.59375 -24.1875 11.914062 -24.734375 14.625 -24.734375 C 15.394531 -24.734375 16.160156 -24.671875 16.921875 -24.546875 C 17.679688 -24.421875 18.421875 -24.273438 19.140625 -24.109375 L 19.140625 -33.59375 L 25.6875 -33.59375 L 25.6875 -1.65625 C 24 -0.832031 22.328125 -0.242188 20.671875 0.109375 C 19.015625 0.472656 17.082031 0.65625 14.875 0.65625 Z M 14.875 -5.21875 C 15.675781 -5.21875 16.425781 -5.265625 17.125 -5.359375 C 17.832031 -5.460938 18.503906 -5.59375 19.140625 -5.75 L 19.140625 -18.21875 C 18.503906 -18.363281 17.8125 -18.503906 17.0625 -18.640625 C 16.320312 -18.773438 15.59375 -18.84375 14.875 -18.84375 C 12.71875 -18.84375 11.078125 -18.191406 9.953125 -16.890625 C 8.835938 -15.597656 8.28125 -14 8.28125 -12.09375 L 8.28125 -12.015625 C 8.28125 -10.109375 8.835938 -8.5 9.953125 -7.1875 C 11.078125 -5.875 12.71875 -5.21875 14.875 -5.21875 Z M 14.875 -5.21875 "/></g></g></g><g fill="#ffffff" fill-opacity="1"><g transform="translate(124.446104, 216.116295)"><g><path d="M 8.828125 0 L 2.234375 0 L 2.234375 -22.859375 C 3.390625 -23.109375 4.582031 -23.300781 5.8125 -23.4375 C 7.039062 -23.582031 8.191406 -23.675781 9.265625 -23.71875 C 10.347656 -23.757812 11.25 -23.78125 11.96875 -23.78125 L 16.609375 -23.78125 L 16.609375 -17.734375 L 13.046875 -17.734375 C 12.710938 -17.734375 12.242188 -17.710938 11.640625 -17.671875 C 11.035156 -17.628906 10.460938 -17.585938 9.921875 -17.546875 C 9.378906 -17.503906 9.015625 -17.453125 8.828125 -17.390625 Z M 8.828125 0 "/></g></g></g><g fill="#ffffff" fill-opacity="1"><g transform="translate(141.052756, 216.116295)"><g><path d="M 14.875 0.65625 C 12.300781 0.65625 10.019531 0.101562 8.03125 -1 C 6.039062 -2.101562 4.488281 -3.613281 3.375 -5.53125 C 2.257812 -7.445312 1.703125 -9.617188 1.703125 -12.046875 L 1.703125 -12.09375 C 1.703125 -14.519531 2.257812 -16.6875 3.375 -18.59375 C 4.488281 -20.5 6.035156 -22 8.015625 -23.09375 C 9.992188 -24.1875 12.28125 -24.734375 14.875 -24.734375 C 17.46875 -24.734375 19.757812 -24.1875 21.75 -23.09375 C 23.738281 -22 25.289062 -20.5 26.40625 -18.59375 C 27.519531 -16.6875 28.078125 -14.519531 28.078125 -12.09375 L 28.078125 -12.046875 C 28.078125 -9.617188 27.519531 -7.445312 26.40625 -5.53125 C 25.289062 -3.613281 23.738281 -2.101562 21.75 -1 C 19.757812 0.101562 17.46875 0.65625 14.875 0.65625 Z M 14.875 -5.21875 C 16.195312 -5.21875 17.347656 -5.519531 18.328125 -6.125 C 19.304688 -6.738281 20.070312 -7.5625 20.625 -8.59375 C 21.175781 -9.625 21.453125 -10.773438 21.453125 -12.046875 L 21.453125 -12.140625 C 21.453125 -13.410156 21.179688 -14.546875 20.640625 -15.546875 C 20.109375 -16.554688 19.351562 -17.359375 18.375 -17.953125 C 17.394531 -18.546875 16.226562 -18.84375 14.875 -18.84375 C 13.539062 -18.84375 12.382812 -18.546875 11.40625 -17.953125 C 10.425781 -17.359375 9.660156 -16.554688 9.109375 -15.546875 C 8.554688 -14.546875 8.28125 -13.410156 8.28125 -12.140625 L 8.28125 -12.046875 C 8.28125 -10.773438 8.554688 -9.625 9.109375 -8.59375 C 9.660156 -7.5625 10.429688 -6.738281 11.421875 -6.125 C 12.421875 -5.519531 13.570312 -5.21875 14.875 -5.21875 Z M 14.875 -5.21875 "/></g></g></g><g fill="#ffffff" fill-opacity="1"><g transform="translate(169.213906, 216.116295)"><g/></g></g><g fill="#ffffff" fill-opacity="1"><g transform="translate(174.638771, 216.116295)"><g><path d="M 19.296875 0.53125 C 16.703125 0.53125 14.328125 0.09375 12.171875 -0.78125 C 10.023438 -1.664062 8.160156 -2.898438 6.578125 -4.484375 C 5.003906 -6.078125 3.796875 -7.921875 2.953125 -10.015625 C 2.117188 -12.117188 1.703125 -14.382812 1.703125 -16.8125 L 1.703125 -16.859375 C 1.703125 -19.316406 2.117188 -21.59375 2.953125 -23.6875 C 3.796875 -25.789062 5 -27.617188 6.5625 -29.171875 C 8.125 -30.734375 9.984375 -31.957031 12.140625 -32.84375 C 14.296875 -33.726562 16.679688 -34.171875 19.296875 -34.171875 C 21.921875 -34.171875 24.300781 -33.726562 26.4375 -32.84375 C 28.582031 -31.957031 30.4375 -30.734375 32 -29.171875 C 33.5625 -27.617188 34.757812 -25.789062 35.59375 -23.6875 C 36.4375 -21.59375 36.859375 -19.316406 36.859375 -16.859375 L 36.859375 -16.8125 C 36.859375 -14.382812 36.4375 -12.117188 35.59375 -10.015625 C 34.757812 -7.921875 33.5625 -6.078125 32 -4.484375 C 30.4375 -2.898438 28.578125 -1.664062 26.421875 -0.78125 C 24.273438 0.09375 21.898438 0.53125 19.296875 0.53125 Z M 19.296875 -5.546875 C 21.347656 -5.546875 23.191406 -6.015625 24.828125 -6.953125 C 26.472656 -7.898438 27.785156 -9.210938 28.765625 -10.890625 C 29.742188 -12.578125 30.234375 -14.550781 30.234375 -16.8125 L 30.234375 -16.859375 C 30.234375 -19.148438 29.742188 -21.128906 28.765625 -22.796875 C 27.785156 -24.472656 26.472656 -25.769531 24.828125 -26.6875 C 23.191406 -27.613281 21.347656 -28.078125 19.296875 -28.078125 C 17.253906 -28.078125 15.40625 -27.613281 13.75 -26.6875 C 12.09375 -25.769531 10.773438 -24.472656 9.796875 -22.796875 C 8.816406 -21.128906 8.328125 -19.148438 8.328125 -16.859375 L 8.328125 -16.8125 C 8.328125 -14.550781 8.816406 -12.578125 9.796875 -10.890625 C 10.773438 -9.210938 12.09375 -7.898438 13.75 -6.953125 C 15.40625 -6.015625 17.253906 -5.546875 19.296875 -5.546875 Z M 19.296875 -5.546875 "/></g></g></g><g fill="#ffffff" fill-opacity="1"><g transform="translate(211.621107, 216.116295)"><g><path d="M 8.828125 0 L 2.234375 0 L 2.234375 -33.59375 L 8.828125 -33.59375 Z M 8.828125 0 "/></g></g></g><g fill="#ffffff" fill-opacity="1"><g transform="translate(221.104551, 216.116295)"><g><path d="M 5.515625 -26.875 C 4.628906 -26.875 3.859375 -27.109375 3.203125 -27.578125 C 2.554688 -28.054688 2.234375 -28.789062 2.234375 -29.78125 C 2.234375 -30.664062 2.539062 -31.363281 3.15625 -31.875 C 3.78125 -32.382812 4.566406 -32.640625 5.515625 -32.640625 C 6.472656 -32.640625 7.253906 -32.382812 7.859375 -31.875 C 8.472656 -31.363281 8.78125 -30.664062 8.78125 -29.78125 C 8.78125 -28.789062 8.460938 -28.054688 7.828125 -27.578125 C 7.191406 -27.109375 6.421875 -26.875 5.515625 -26.875 Z M 8.828125 0 L 2.234375 0 L 2.234375 -23.78125 L 8.828125 -23.78125 Z M 8.828125 0 "/></g></g></g><g fill="#ffffff" fill-opacity="1"><g transform="translate(230.587994, 216.116295)"><g><path d="M 13.125 -4.640625 L 18.890625 -23.78125 L 25.765625 -23.78125 L 17.640625 0 L 8.609375 0 L 0.5 -23.78125 L 7.375 -23.78125 Z M 13.125 -4.640625 "/></g></g></g><g fill="#ffffff" fill-opacity="1"><g transform="translate(255.270381, 216.116295)"><g><path d="M 26.296875 -11.09375 L 26.296875 -10.515625 L 8.484375 -10.515625 C 8.816406 -9.003906 9.554688 -7.726562 10.703125 -6.6875 C 11.847656 -5.65625 13.320312 -5.140625 15.125 -5.140625 C 16.582031 -5.140625 17.925781 -5.363281 19.15625 -5.8125 C 20.382812 -6.269531 21.425781 -6.804688 22.28125 -7.421875 L 25.140625 -2.3125 C 23.953125 -1.570312 22.515625 -0.894531 20.828125 -0.28125 C 19.148438 0.320312 17.148438 0.625 14.828125 0.625 C 12.179688 0.625 9.867188 0.09375 7.890625 -0.96875 C 5.910156 -2.03125 4.375 -3.515625 3.28125 -5.421875 C 2.195312 -7.328125 1.65625 -9.535156 1.65625 -12.046875 L 1.65625 -12.09375 C 1.65625 -14.582031 2.164062 -16.769531 3.1875 -18.65625 C 4.207031 -20.550781 5.640625 -22.035156 7.484375 -23.109375 C 9.335938 -24.191406 11.523438 -24.734375 14.046875 -24.734375 C 16.585938 -24.734375 18.773438 -24.1875 20.609375 -23.09375 C 22.441406 -22 23.847656 -20.4375 24.828125 -18.40625 C 25.804688 -16.382812 26.296875 -13.945312 26.296875 -11.09375 Z M 14 -19.390625 C 12.5625 -19.390625 11.363281 -18.929688 10.40625 -18.015625 C 9.457031 -17.109375 8.832031 -15.960938 8.53125 -14.578125 L 19.59375 -14.578125 C 19.34375 -15.960938 18.75 -17.109375 17.8125 -18.015625 C 16.875 -18.929688 15.601562 -19.390625 14 -19.390625 Z M 14 -19.390625 "/></g></g></g><g fill="#ffffff" fill-opacity="1"><g transform="translate(281.692155, 216.116295)"><g><path d="M 5.515625 -26.875 C 4.628906 -26.875 3.859375 -27.109375 3.203125 -27.578125 C 2.554688 -28.054688 2.234375 -28.789062 2.234375 -29.78125 C 2.234375 -30.664062 2.539062 -31.363281 3.15625 -31.875 C 3.78125 -32.382812 4.566406 -32.640625 5.515625 -32.640625 C 6.472656 -32.640625 7.253906 -32.382812 7.859375 -31.875 C 8.472656 -31.363281 8.78125 -30.664062 8.78125 -29.78125 C 8.78125 -28.789062 8.460938 -28.054688 7.828125 -27.578125 C 7.191406 -27.109375 6.421875 -26.875 5.515625 -26.875 Z M 8.828125 0 L 2.234375 0 L 2.234375 -23.78125 L 8.828125 -23.78125 Z M 8.828125 0 "/></g></g></g><g fill="#ffffff" fill-opacity="1"><g transform="translate(291.175598, 216.116295)"><g><path d="M 8.828125 0 L 2.234375 0 L 2.234375 -22.859375 C 3.390625 -23.109375 4.582031 -23.300781 5.8125 -23.4375 C 7.039062 -23.582031 8.191406 -23.675781 9.265625 -23.71875 C 10.347656 -23.757812 11.25 -23.78125 11.96875 -23.78125 L 16.609375 -23.78125 L 16.609375 -17.734375 L 13.046875 -17.734375 C 12.710938 -17.734375 12.242188 -17.710938 11.640625 -17.671875 C 11.035156 -17.628906 10.460938 -17.585938 9.921875 -17.546875 C 9.378906 -17.503906 9.015625 -17.453125 8.828125 -17.390625 Z M 8.828125 0 "/></g></g></g><g fill="#ffffff" fill-opacity="1"><g transform="translate(307.782256, 216.116295)"><g><path d="M 13.34375 -24.609375 C 15.550781 -24.609375 17.46875 -24.3125 19.09375 -23.71875 C 20.726562 -23.125 21.992188 -22.140625 22.890625 -20.765625 C 23.785156 -19.398438 24.234375 -17.546875 24.234375 -15.203125 L 24.234375 -0.5 C 22.597656 -0.132812 20.800781 0.144531 18.84375 0.34375 C 16.882812 0.550781 15.09375 0.65625 13.46875 0.65625 C 11.03125 0.65625 8.925781 0.410156 7.15625 -0.078125 C 5.394531 -0.578125 4.035156 -1.390625 3.078125 -2.515625 C 2.128906 -3.648438 1.65625 -5.144531 1.65625 -7 L 1.65625 -7.078125 C 1.65625 -9.617188 2.609375 -11.484375 4.515625 -12.671875 C 6.421875 -13.859375 9.003906 -14.453125 12.265625 -14.453125 C 13.148438 -14.453125 14.023438 -14.429688 14.890625 -14.390625 C 15.765625 -14.347656 16.679688 -14.257812 17.640625 -14.125 L 17.640625 -15 C 17.640625 -16.488281 17.140625 -17.535156 16.140625 -18.140625 C 15.148438 -18.742188 13.742188 -19.046875 11.921875 -19.046875 C 10.734375 -19.046875 9.367188 -18.898438 7.828125 -18.609375 C 6.285156 -18.328125 4.863281 -17.921875 3.5625 -17.390625 L 5.015625 -23.234375 C 5.617188 -23.484375 6.375 -23.710938 7.28125 -23.921875 C 8.195312 -24.128906 9.1875 -24.296875 10.25 -24.421875 C 11.3125 -24.546875 12.34375 -24.609375 13.34375 -24.609375 Z M 8.40625 -7.421875 L 8.40625 -7.328125 C 8.40625 -6.304688 8.867188 -5.570312 9.796875 -5.125 C 10.722656 -4.6875 12.023438 -4.46875 13.703125 -4.46875 C 14.867188 -4.46875 16.179688 -4.582031 17.640625 -4.8125 L 17.640625 -9.9375 C 16.984375 -10.050781 16.296875 -10.132812 15.578125 -10.1875 C 14.859375 -10.238281 14.234375 -10.265625 13.703125 -10.265625 C 12.046875 -10.265625 10.75 -10.050781 9.8125 -9.625 C 8.875 -9.195312 8.40625 -8.460938 8.40625 -7.421875 Z M 8.40625 -7.421875 "/></g></g></g><g fill="#38b6ff" fill-opacity="1"><g transform="translate(138.147849, 245.299906)"><g><path d="M 6.90625 0.3125 C 5.644531 0.3125 4.554688 0.0546875 3.640625 -0.453125 C 2.722656 -0.972656 2.015625 -1.675781 1.515625 -2.5625 C 1.023438 -3.445312 0.78125 -4.453125 0.78125 -5.578125 L 0.78125 -5.609375 C 0.78125 -6.742188 1.019531 -7.753906 1.5 -8.640625 C 1.976562 -9.523438 2.664062 -10.21875 3.5625 -10.71875 C 4.457031 -11.226562 5.535156 -11.484375 6.796875 -11.484375 C 7.148438 -11.484375 7.503906 -11.453125 7.859375 -11.390625 C 8.210938 -11.335938 8.554688 -11.269531 8.890625 -11.1875 L 8.890625 -15.59375 L 11.921875 -15.59375 L 11.921875 -0.765625 C 11.140625 -0.378906 10.363281 -0.101562 9.59375 0.0625 C 8.820312 0.226562 7.925781 0.3125 6.90625 0.3125 Z M 6.90625 -2.421875 C 7.28125 -2.421875 7.628906 -2.441406 7.953125 -2.484375 C 8.273438 -2.535156 8.585938 -2.597656 8.890625 -2.671875 L 8.890625 -8.46875 C 8.585938 -8.53125 8.265625 -8.59375 7.921875 -8.65625 C 7.578125 -8.71875 7.238281 -8.75 6.90625 -8.75 C 5.90625 -8.75 5.144531 -8.445312 4.625 -7.84375 C 4.101562 -7.238281 3.84375 -6.492188 3.84375 -5.609375 L 3.84375 -5.578125 C 3.84375 -4.691406 4.101562 -3.941406 4.625 -3.328125 C 5.144531 -2.722656 5.90625 -2.421875 6.90625 -2.421875 Z M 6.90625 -2.421875 "/></g></g></g><g fill="#38b6ff" fill-opacity="1"><g transform="translate(150.397346, 245.299906)"><g><path d="M 12.21875 -5.15625 L 12.21875 -4.890625 L 3.9375 -4.890625 C 4.09375 -4.179688 4.4375 -3.585938 4.96875 -3.109375 C 5.5 -2.628906 6.179688 -2.390625 7.015625 -2.390625 C 7.703125 -2.390625 8.328125 -2.492188 8.890625 -2.703125 C 9.460938 -2.910156 9.945312 -3.15625 10.34375 -3.4375 L 11.671875 -1.078125 C 11.117188 -0.734375 10.453125 -0.421875 9.671875 -0.140625 C 8.890625 0.140625 7.960938 0.28125 6.890625 0.28125 C 5.660156 0.28125 4.582031 0.0351562 3.65625 -0.453125 C 2.738281 -0.941406 2.023438 -1.628906 1.515625 -2.515625 C 1.015625 -3.398438 0.765625 -4.425781 0.765625 -5.59375 L 0.765625 -5.609375 C 0.765625 -6.765625 1 -7.78125 1.46875 -8.65625 C 1.945312 -9.539062 2.613281 -10.234375 3.46875 -10.734375 C 4.332031 -11.234375 5.347656 -11.484375 6.515625 -11.484375 C 7.703125 -11.484375 8.71875 -11.226562 9.5625 -10.71875 C 10.414062 -10.21875 11.070312 -9.492188 11.53125 -8.546875 C 11.988281 -7.609375 12.21875 -6.476562 12.21875 -5.15625 Z M 6.5 -9 C 5.832031 -9 5.273438 -8.785156 4.828125 -8.359375 C 4.390625 -7.941406 4.101562 -7.410156 3.96875 -6.765625 L 9.09375 -6.765625 C 8.976562 -7.410156 8.703125 -7.941406 8.265625 -8.359375 C 7.828125 -8.785156 7.238281 -9 6.5 -9 Z M 6.5 -9 "/></g></g></g><g fill="#38b6ff" fill-opacity="1"><g transform="translate(162.666068, 245.299906)"><g><path d="M 6.09375 -2.15625 L 8.765625 -11.046875 L 11.96875 -11.046875 L 8.1875 0 L 4 0 L 0.234375 -11.046875 L 3.421875 -11.046875 Z M 6.09375 -2.15625 "/></g></g></g><g fill="#38b6ff" fill-opacity="1"><g transform="translate(174.12711, 245.299906)"><g><path d="M 12.21875 -5.15625 L 12.21875 -4.890625 L 3.9375 -4.890625 C 4.09375 -4.179688 4.4375 -3.585938 4.96875 -3.109375 C 5.5 -2.628906 6.179688 -2.390625 7.015625 -2.390625 C 7.703125 -2.390625 8.328125 -2.492188 8.890625 -2.703125 C 9.460938 -2.910156 9.945312 -3.15625 10.34375 -3.4375 L 11.671875 -1.078125 C 11.117188 -0.734375 10.453125 -0.421875 9.671875 -0.140625 C 8.890625 0.140625 7.960938 0.28125 6.890625 0.28125 C 5.660156 0.28125 4.582031 0.0351562 3.65625 -0.453125 C 2.738281 -0.941406 2.023438 -1.628906 1.515625 -2.515625 C 1.015625 -3.398438 0.765625 -4.425781 0.765625 -5.59375 L 0.765625 -5.609375 C 0.765625 -6.765625 1 -7.78125 1.46875 -8.65625 C 1.945312 -9.539062 2.613281 -10.234375 3.46875 -10.734375 C 4.332031 -11.234375 5.347656 -11.484375 6.515625 -11.484375 C 7.703125 -11.484375 8.71875 -11.226562 9.5625 -10.71875 C 10.414062 -10.21875 11.070312 -9.492188 11.53125 -8.546875 C 11.988281 -7.609375 12.21875 -6.476562 12.21875 -5.15625 Z M 6.5 -9 C 5.832031 -9 5.273438 -8.785156 4.828125 -8.359375 C 4.390625 -7.941406 4.101562 -7.410156 3.96875 -6.765625 L 9.09375 -6.765625 C 8.976562 -7.410156 8.703125 -7.941406 8.265625 -8.359375 C 7.828125 -8.785156 7.238281 -9 6.5 -9 Z M 6.5 -9 "/></g></g></g><g fill="#38b6ff" fill-opacity="1"><g transform="translate(186.395834, 245.299906)"><g><path d="M 4.09375 0 L 1.03125 0 L 1.03125 -15.59375 L 4.09375 -15.59375 Z M 4.09375 0 "/></g></g></g><g fill="#38b6ff" fill-opacity="1"><g transform="translate(190.799263, 245.299906)"><g><path d="M 6.90625 0.3125 C 5.707031 0.3125 4.644531 0.0546875 3.71875 -0.453125 C 2.800781 -0.972656 2.082031 -1.675781 1.5625 -2.5625 C 1.039062 -3.457031 0.78125 -4.46875 0.78125 -5.59375 L 0.78125 -5.609375 C 0.78125 -6.742188 1.039062 -7.753906 1.5625 -8.640625 C 2.082031 -9.523438 2.800781 -10.21875 3.71875 -10.71875 C 4.632812 -11.226562 5.695312 -11.484375 6.90625 -11.484375 C 8.113281 -11.484375 9.175781 -11.226562 10.09375 -10.71875 C 11.019531 -10.21875 11.742188 -9.523438 12.265625 -8.640625 C 12.785156 -7.753906 13.046875 -6.742188 13.046875 -5.609375 L 13.046875 -5.59375 C 13.046875 -4.46875 12.785156 -3.457031 12.265625 -2.5625 C 11.742188 -1.675781 11.019531 -0.972656 10.09375 -0.453125 C 9.175781 0.0546875 8.113281 0.3125 6.90625 0.3125 Z M 6.90625 -2.421875 C 7.519531 -2.421875 8.050781 -2.5625 8.5 -2.84375 C 8.957031 -3.125 9.316406 -3.503906 9.578125 -3.984375 C 9.835938 -4.472656 9.96875 -5.007812 9.96875 -5.59375 L 9.96875 -5.640625 C 9.96875 -6.222656 9.84375 -6.75 9.59375 -7.21875 C 9.34375 -7.6875 8.988281 -8.054688 8.53125 -8.328125 C 8.070312 -8.609375 7.53125 -8.75 6.90625 -8.75 C 6.289062 -8.75 5.753906 -8.609375 5.296875 -8.328125 C 4.835938 -8.054688 4.476562 -7.6875 4.21875 -7.21875 C 3.96875 -6.75 3.84375 -6.222656 3.84375 -5.640625 L 3.84375 -5.59375 C 3.84375 -5.007812 3.96875 -4.472656 4.21875 -3.984375 C 4.476562 -3.503906 4.835938 -3.125 5.296875 -2.84375 C 5.765625 -2.5625 6.300781 -2.421875 6.90625 -2.421875 Z M 6.90625 -2.421875 "/></g></g></g><g fill="#38b6ff" fill-opacity="1"><g transform="translate(203.875665, 245.299906)"><g><path d="M 4.09375 4.234375 L 1.03125 4.234375 L 1.03125 -10.421875 C 1.695312 -10.691406 2.441406 -10.9375 3.265625 -11.15625 C 4.097656 -11.375 5.03125 -11.484375 6.0625 -11.484375 C 7.3125 -11.484375 8.394531 -11.222656 9.3125 -10.703125 C 10.226562 -10.191406 10.9375 -9.492188 11.4375 -8.609375 C 11.9375 -7.734375 12.1875 -6.726562 12.1875 -5.59375 L 12.1875 -5.5625 C 12.1875 -4.445312 11.945312 -3.445312 11.46875 -2.5625 C 10.988281 -1.675781 10.300781 -0.976562 9.40625 -0.46875 C 8.519531 0.03125 7.445312 0.28125 6.1875 0.28125 C 5.832031 0.28125 5.476562 0.25 5.125 0.1875 C 4.769531 0.132812 4.425781 0.0664062 4.09375 -0.015625 Z M 6.0625 -2.4375 C 7.070312 -2.4375 7.832031 -2.734375 8.34375 -3.328125 C 8.851562 -3.929688 9.109375 -4.675781 9.109375 -5.5625 L 9.109375 -5.59375 C 9.109375 -6.488281 8.851562 -7.238281 8.34375 -7.84375 C 7.832031 -8.445312 7.070312 -8.75 6.0625 -8.75 C 5.351562 -8.75 4.695312 -8.671875 4.09375 -8.515625 L 4.09375 -2.75 C 4.394531 -2.675781 4.71875 -2.601562 5.0625 -2.53125 C 5.40625 -2.46875 5.738281 -2.4375 6.0625 -2.4375 Z M 6.0625 -2.4375 "/></g></g></g><g fill="#38b6ff" fill-opacity="1"><g transform="translate(216.125163, 245.299906)"><g><path d="M 12.21875 -5.15625 L 12.21875 -4.890625 L 3.9375 -4.890625 C 4.09375 -4.179688 4.4375 -3.585938 4.96875 -3.109375 C 5.5 -2.628906 6.179688 -2.390625 7.015625 -2.390625 C 7.703125 -2.390625 8.328125 -2.492188 8.890625 -2.703125 C 9.460938 -2.910156 9.945312 -3.15625 10.34375 -3.4375 L 11.671875 -1.078125 C 11.117188 -0.734375 10.453125 -0.421875 9.671875 -0.140625 C 8.890625 0.140625 7.960938 0.28125 6.890625 0.28125 C 5.660156 0.28125 4.582031 0.0351562 3.65625 -0.453125 C 2.738281 -0.941406 2.023438 -1.628906 1.515625 -2.515625 C 1.015625 -3.398438 0.765625 -4.425781 0.765625 -5.59375 L 0.765625 -5.609375 C 0.765625 -6.765625 1 -7.78125 1.46875 -8.65625 C 1.945312 -9.539062 2.613281 -10.234375 3.46875 -10.734375 C 4.332031 -11.234375 5.347656 -11.484375 6.515625 -11.484375 C 7.703125 -11.484375 8.71875 -11.226562 9.5625 -10.71875 C 10.414062 -10.21875 11.070312 -9.492188 11.53125 -8.546875 C 11.988281 -7.609375 12.21875 -6.476562 12.21875 -5.15625 Z M 6.5 -9 C 5.832031 -9 5.273438 -8.785156 4.828125 -8.359375 C 4.390625 -7.941406 4.101562 -7.410156 3.96875 -6.765625 L 9.09375 -6.765625 C 8.976562 -7.410156 8.703125 -7.941406 8.265625 -8.359375 C 7.828125 -8.785156 7.238281 -9 6.5 -9 Z M 6.5 -9 "/></g></g></g><g fill="#38b6ff" fill-opacity="1"><g transform="translate(228.393886, 245.299906)"><g><path d="M 4.09375 0 L 1.03125 0 L 1.03125 -10.625 C 1.570312 -10.738281 2.128906 -10.828125 2.703125 -10.890625 C 3.273438 -10.953125 3.8125 -10.992188 4.3125 -11.015625 C 4.8125 -11.035156 5.226562 -11.046875 5.5625 -11.046875 L 7.71875 -11.046875 L 7.71875 -8.234375 L 6.0625 -8.234375 C 5.90625 -8.234375 5.6875 -8.222656 5.40625 -8.203125 C 5.125 -8.179688 4.859375 -8.160156 4.609375 -8.140625 C 4.359375 -8.117188 4.1875 -8.097656 4.09375 -8.078125 Z M 4.09375 0 "/></g></g></g></svg>